<svg width="77" height="78" viewBox="0 0 77 78" fill="none" xmlns="http://www.w3.org/2000/svg">
<g id="about">
<g id="outside">
<path id="left-outside" d="M0.5 1.5L38.5 9V76.5L0.5 69V1.5Z" stroke="black"/>
<path id="right-outside" d="M38.5 76.5V9L76.5 1.5V69L38.5 76.5Z" stroke="black"/>
</g>
<g id="inside">
<path id="left-inside" d="M38.5 72.5V12L4.5 5.5V66L38.5 72.5Z" stroke="black"/>
<path id="right-inside" d="M72.5 5.5L38.5 12V72.5L72.5 66V5.5Z" stroke="black"/>
</g>
<path id="desk" d="M9.5 67V51M29.5 50.1154L9.5 45.5V51M29.5 50.1154L35.5 51.5V57M29.5 50.1154V60.3077M9.5 51L35.5 57M35.5 57V61.5M29.5 60.3077L35.5 61.5M29.5 60.3077V65.5M35.5 61.5V66.5962M29.5 65.5V70.5L35.5 71.5V66.5962M29.5 65.5L35.5 66.5962M31.5 68L34 68.5M31.5 63L34 63.5M31.5 58L34 58.5M31.5 53L34 53.5" stroke="black"/>
<g id="person">
<path id="Ellipse 1" d="M58.6307 25C58.6307 27.121 58.0388 29.0194 57.1077 30.3736C56.1752 31.73 54.9374 32.5 53.6307 32.5C52.3239 32.5 51.0861 31.73 50.1536 30.3736C49.2226 29.0194 48.6307 27.121 48.6307 25C48.6307 22.879 49.2226 20.9806 50.1536 19.6264C51.0861 18.27 52.3239 17.5 53.6307 17.5C54.9374 17.5 56.1752 18.27 57.1077 19.6264C58.0388 20.9806 58.6307 22.879 58.6307 25Z" stroke="black"/>
<path id="Vector 1" d="M67 67C67 59 66.2973 53 65.6307 47C64.964 41 60.1307 35 53.6307 36C47.1307 37 45.1307 43 44.3098 49C43.4889 55 44.5548 62.4769 44.5929 71.5L67 67Z" stroke="black"/>
</g>
</g>
</svg>
