<svg width="58" height="66" viewBox="0 0 58 66" fill="none" xmlns="http://www.w3.org/2000/svg">
<g id="tour">
<g id="open-door">
<rect id="frame" x="19.5" y="0.5" width="38" height="64" stroke="black"/>
<g id="knop">
<mask id="path-2-inside-1_3_111" fill="white">
<ellipse cx="42.6364" cy="33.4848" rx="1.18182" ry="0.984849"/>
</mask>
<ellipse cx="42.6364" cy="33.4848" rx="1.18182" ry="0.984849" fill="black"/>
<path d="M42.8182 33.4848C42.8182 33.4555 42.826 33.4307 42.8336 33.4156C42.8404 33.4023 42.8433 33.4035 42.8319 33.413C42.8069 33.4339 42.741 33.4697 42.6364 33.4697V35.4697C43.6629 35.4697 44.8182 34.744 44.8182 33.4848H42.8182ZM42.6364 33.4697C42.5318 33.4697 42.4659 33.4339 42.4409 33.413C42.4295 33.4035 42.4324 33.4023 42.4391 33.4156C42.4468 33.4307 42.4546 33.4555 42.4546 33.4848H40.4546C40.4546 34.744 41.6099 35.4697 42.6364 35.4697V33.4697ZM42.4546 33.4848C42.4546 33.5142 42.4468 33.539 42.4391 33.5541C42.4324 33.5674 42.4295 33.5662 42.4409 33.5567C42.4659 33.5358 42.5318 33.5 42.6364 33.5V31.5C41.6099 31.5 40.4546 32.2257 40.4546 33.4848H42.4546ZM42.6364 33.5C42.741 33.5 42.8069 33.5358 42.8319 33.5567C42.8433 33.5662 42.8404 33.5674 42.8336 33.5541C42.826 33.539 42.8182 33.5142 42.8182 33.4848H44.8182C44.8182 32.2257 43.6629 31.5 42.6364 31.5V33.5Z" fill="black" mask="url(#path-2-inside-1_3_111)"/>
</g>
<path id="door" d="M44.5 59.587L19.5 64.3947V0.605315L44.5 5.41301V59.587Z" stroke="black"/>
</g>
<g id="person">
<circle id="head" cx="5.5" cy="12.5" r="5" stroke="black"/>
<line id="body" x1="5.5" y1="18" x2="5.5" y2="44" stroke="black"/>
<line id="left-leg" x1="5.48757" y1="43.1108" x2="0.487566" y2="65.1108" stroke="black"/>
<line id="right-leg" x1="5.48238" y1="42.8684" x2="11.4824" y2="64.8684" stroke="black"/>
<line id="arm" x1="5.88919" y1="27.5124" x2="27.8892" y2="22.5124" stroke="black"/>
</g>
</g>
</svg>
